# xmcd
#
# Track frame offsets:
#	150
#	20202
#	41236
#	59275
#	81192
#	99742
#	124560
#	142352
#	164174
#	180926
#	200528
#
# Disc length: 2885 seconds
#
# Revision: 0
# Processed by: cddbd v1.5.2PL0 Copyright (c) Steve Scherf et al.
# Submitted via: EasyCDDAExtractor 9.0.0.1
#
DISCID=a40b430b
DTITLE=Susan Santos - Electric Love
DYEAR=2014
DGENRE=Blues
TTITLE0=It's all about you
TTITLE1=Electric love
TTITLE2=Devil's waltz
TTITLE3=Inner city
TTITLE4=Bio shinny car
TTITLE5=Kaleidoscope
TTITLE6=Off my skull
TTITLE7=Somebody like you
TTITLE8=Ice on fire
TTITLE9=Everything
TTITLE10=You're rockin' me
EXTD=
EXTT0=
EXTT1=
EXTT2=
EXTT3=
EXTT4=
EXTT5=
EXTT6=
EXTT7=
EXTT8=
EXTT9=
EXTT10=
PLAYORDER=
